<?xml version="1.0" encoding="UTF-8"?>
<svg xmlns="http://www.w3.org/2000/svg" version="1.1" viewBox="60 455 1160 350" role="img" aria-label="Vozon logo">
<style>path { fill: #61fff0 !important; } path:first-of-type { fill: none !important; }</style>
<path d="M0 0 C413.82 0 827.64 0 1254 0 C1254 413.82 1254 827.64 1254 1254 C840.18 1254 426.36 1254 0 1254 C0 840.18 0 426.36 0 0 Z " fill="#FDFDFD" transform="translate(0,0)"/>
<path d="M0 0 C1.78809837 -0.01441132 1.78809837 -0.01441132 3.61231995 -0.02911377 C5.55593666 -0.03548859 5.55593666 -0.03548859 7.53881836 -0.04199219 C8.88203431 -0.04774711 10.22525026 -0.0535048 11.56846619 -0.05926514 C14.39053733 -0.06978049 17.21257998 -0.07561826 20.03466797 -0.07910156 C23.63006884 -0.08455863 27.22508568 -0.10852365 30.82036686 -0.13707352 C33.59926907 -0.15581994 36.37808149 -0.16091203 39.15704155 -0.16243744 C41.12053199 -0.16689394 43.08397415 -0.18549113 45.04737854 -0.20440674 C52.05386098 -0.18708806 57.86540828 0.36838928 64.31616211 3.16113281 C65.00513077 3.44059753 65.69409943 3.72006226 66.40394592 4.00799561 C80.80140966 10.06470976 87.28980338 23.7769619 93.83569336 36.96972656 C94.33856369 37.97592545 94.84143402 38.98212433 95.35954285 40.01881409 C96.41770468 42.13814002 97.47393733 44.25843019 98.52832031 46.37963867 C100.10997176 49.56103827 101.69787284 52.73925388 103.28686523 55.91699219 C107.93840265 65.23742791 112.54056615 74.57253522 116.95288086 84.00878906 C120.63295812 91.86558053 124.61233128 99.53443843 128.68725586 107.19238281 C131.50590762 112.49683315 134.24430588 117.84092003 136.97241211 123.19238281 C137.45129883 124.13122314 137.93018555 125.07006348 138.42358398 126.03735352 C140.37867657 129.87261965 142.33149382 133.7090425 144.28442383 137.54541016 C150.49287099 149.73680607 156.7643571 161.89004512 163.16627502 173.98104858 C164.81981881 177.11602137 166.45593879 180.26003801 168.09118652 183.40458679 C177.36910712 200.91565113 190.21985438 212.59479468 209.24389648 218.59033203 C214.50306349 220.03895744 219.89160825 220.66953262 225.31616211 221.16113281 C217.36371585 234.37787448 208.13358185 247.1388377 197.31616211 258.16113281 C196.38803711 259.10859375 196.38803711 259.10859375 195.44116211 260.07519531 C181.78685054 272.98989834 166.99462803 274.77850857 149.09350586 274.46972656 C135.53924264 273.94699053 121.62439338 267.13118786 112.31616211 257.16113281 C105.47109433 249.22934806 100.94554859 240.87416404 96.46313477 231.50878906 C94.29704621 227.07517742 91.98516849 222.71701461 89.69116211 218.34863281 C88.6531222 216.36570618 87.61536883 214.38262953 86.57788086 212.39941406 C86.04469238 211.38057129 85.51150391 210.36172852 84.9621582 209.31201172 C80.32302593 200.43146573 75.72252532 191.53075541 71.11499023 182.63378906 C69.35499354 179.23609729 67.59346697 175.83920211 65.83178711 172.44238281 C58.49467001 158.28580109 51.20589237 144.10499305 43.94116211 129.91113281 C37.32696919 116.98890286 30.71066067 104.06781392 24.06616211 91.16113281 C23.71290863 90.47491852 23.35965515 89.78870422 22.99569702 89.08169556 C18.78448961 80.9051987 14.5400228 72.74822091 10.20507812 64.63647461 C7.55336258 59.65923891 5.05073511 54.61579971 2.55981445 49.55664062 C-0.99855482 42.40465324 -4.86576842 35.42080035 -8.73583984 28.43383789 C-9.23301514 27.5330249 -9.73019043 26.63221191 -10.24243164 25.70410156 C-10.68901123 24.89996826 -11.13559082 24.09583496 -11.59570312 23.26733398 C-14.11598814 18.38905289 -14.57139063 13.54344805 -13.68383789 8.16113281 C-10.18340161 2.16192355 -6.85015139 0.04445787 0 0 Z " fill="#2C3BEE" transform="translate(87.683837890625,491.8388671875)"/>
<path d="M0 0 C0.71027344 0.61488281 1.42054688 1.22976563 2.15234375 1.86328125 C2.83167969 2.44722656 3.51101563 3.03117188 4.2109375 3.6328125 C15.48028451 14.06739306 22.6795644 28.97903072 23.42578125 44.34765625 C24.02195411 65.96459528 18.46429032 81.51317014 4.15234375 97.86328125 C-10.50659925 111.89285998 -29.24044913 117.56592639 -49.1394043 117.47460938 C-63.08814801 117.00555082 -75.76336394 112.38125958 -86.84765625 103.86328125 C-87.62238281 103.280625 -88.39710938 102.69796875 -89.1953125 102.09765625 C-100.99957862 92.45986779 -109.25591576 77.85733219 -111.84765625 62.86328125 C-113.58314336 41.87096692 -110.30969184 24.62986105 -96.75 7.984375 C-71.84036634 -19.78961078 -29.08065221 -23.86760032 0 0 Z " fill="#03042C" transform="translate(717.84765625,580.13671875)"/>
<path d="M0 0 C13.31904109 10.33104507 22.56246585 23.3776713 26.125 40.125 C27.23384147 54.46975932 26.7892523 67.82135266 21.125 81.125 C20.79113281 81.93839844 20.45726562 82.75179687 20.11328125 83.58984375 C12.56792898 100.17688398 -1.96193004 110.72510065 -18.50390625 117.046875 C-36.98691134 122.95800988 -55.42276484 121.52777351 -72.875 113.125 C-76.55042619 111.09372357 -79.69952163 108.86207277 -82.875 106.125 C-83.6484375 105.50882813 -84.421875 104.89265625 -85.21875 104.2578125 C-93.41109779 97.45816383 -98.44895329 89.56333561 -102.75 79.9375 C-103.0485791 79.27234375 -103.3471582 78.6071875 -103.65478516 77.921875 C-109.28185023 64.71877887 -109.17430964 45.31695678 -104.1328125 31.90234375 C-96.00736506 13.96075018 -84.15681866 1.13607462 -66.4375 -7.5625 C-65.261875 -7.995625 -64.08625 -8.42875 -62.875 -8.875 C-62.15828125 -9.1534375 -61.4415625 -9.431875 -60.703125 -9.71875 C-40.93604588 -16.348702 -16.74592438 -11.76615434 0 0 Z " fill="#03042C" transform="translate(1006.875,576.875)"/>
<path d="M0 0 C14.56117235 8.46866193 24.94415411 20.86536353 29.80273438 37.11425781 C34.89315781 58.27527425 26.81030319 76.07479588 16.77539062 94.39160156 C15.85790039 96.0815625 15.85790039 96.0815625 14.921875 97.80566406 C10.42892983 106.05121329 5.82401274 114.23064986 1.17407227 122.38842773 C-2.92534448 129.60163961 -6.87482475 136.88796288 -10.78710938 144.20410156 C-15.21970328 152.47142179 -19.68399582 160.71774072 -24.28710938 168.89160156 C-25.00169312 170.1805835 -25.00169312 170.1805835 -25.73071289 171.49560547 C-28.29189224 176.00215153 -30.83162094 179.57411862 -34.72460938 183.07910156 C-35.25183594 183.62695312 -35.7790625 184.17480469 -36.32226562 184.73925781 C-42.76908681 190.91101463 -51.06634707 193.22335098 -59.84960938 193.64160156 C-67.23499834 193.37022244 -73.1339145 190.73298411 -78.28710938 185.45410156 C-81.43194363 180.25828845 -81.28990931 174.98244802 -80.72460938 169.07910156 C-79.23953975 163.75611105 -76.64067353 160.27637634 -72.02319336 157.10498047 C-67.1707476 154.93928986 -61.75952028 155.41938193 -56.53710938 155.45410156 C-54.21025003 155.45410156 -51.8833482 155.44161482 -49.55664062 155.41503906 C-48.02100464 155.42349854 -48.02100464 155.42349854 -46.4543457 155.43212891 C-43.29645158 155.0237294 -41.92244788 154.3698843 -39.72460938 152.07910156 C-39.48783492 148.41279705 -39.63423686 144.98024444 -39.88085938 141.32714844 C-40.12088989 135.58141807 -40.12088989 135.58141807 -37.72460938 132.54394531 C-37.06460938 132.06054688 -36.40460938 131.57714844 -35.72460938 131.07910156 C-36.01335937 130.50160156 -36.30210937 129.92410156 -36.59960938 129.32910156 C-37.64127604 127.24576823 -38.68294271 125.1624349 -39.72460938 123.07910156 C-38.07460938 122.08910156 -36.42460937 121.09910156 -34.72460938 120.07910156 C-35.00001642 116.26096709 -35.00001642 116.26096709 -36.72460938 113.07910156 C-37.34960938 109.89160156 -37.34960938 109.89160156 -36.72460938 106.07910156 C-34.48830298 104.31268056 -32.23298717 103.02085511 -29.69335938 101.73144531 C-27.44817235 100.18320649 -27.44817235 100.18320649 -27.06445312 97.23144531 C-27.96984618 92.90805956 -30.41204768 91.22908308 -33.78710938 88.70410156 C-34.98600447 87.75025393 -36.18134055 86.79191556 -37.37304688 85.82910156 C-37.95151367 85.36375 -38.52998047 84.89839844 -39.12597656 84.41894531 C-46.54344809 78.20222513 -49.58238292 72.48728779 -50.55981445 62.98413086 C-52.47964037 44.98111291 -60.16546745 30.22651685 -73.72460938 18.07910156 C-74.71460938 17.41910156 -75.70460938 16.75910156 -76.72460938 16.07910156 C-72.9384126 7.59656455 -63.10307882 2.3152587 -54.84960938 -1.11621094 C-52.15520463 -2.10464746 -49.45356015 -3.03277836 -46.72460938 -3.92089844 C-45.84417969 -4.28054688 -44.96375 -4.64019531 -44.05664062 -5.01074219 C-30.22346305 -8.78932411 -12.46686211 -6.80519143 0 0 Z " fill="#5510DE" transform="translate(371.724609375,497.9208984375)"/>
<path d="M0 0 C1.4643045 -0.01051392 1.4643045 -0.01051392 2.95819092 -0.02124023 C6.18148339 -0.0388287 9.40389603 -0.02719312 12.62719727 -0.01367188 C14.87012399 -0.01636675 17.11304957 -0.02024913 19.35597229 -0.02526855 C24.05595018 -0.03116496 28.75562389 -0.02259657 33.45556641 -0.00390625 C39.47598489 0.01886986 45.49568958 0.00576909 51.51608181 -0.01819611 C56.14782574 -0.03266123 60.77940092 -0.0280445 65.41114998 -0.01768494 C67.63068794 -0.01501896 69.85024128 -0.01828283 72.06976128 -0.02760315 C75.17452344 -0.03777866 78.27813581 -0.02225208 81.3828125 0 C82.29781021 -0.00809692 83.21280792 -0.01619385 84.15553284 -0.02453613 C89.68974469 0.04882802 92.85770792 0.83793222 97.25610352 4.51757812 C99.93900336 7.36566713 100.72542969 9.36670048 100.81860352 13.26757812 C100.88241211 14.46640625 100.88241211 14.46640625 100.94750977 15.68945312 C99.12063037 23.16211236 92.17169294 28.83764903 86.81860352 34.01757812 C82.31453985 38.44317758 77.93357873 42.86887671 73.85766602 47.69726562 C71.9157293 49.90444248 69.84872228 51.95295426 67.75610352 54.01757812 C64.47589844 57.25932183 61.40415291 60.58808621 58.40063477 64.08398438 C55.41371122 67.47351692 52.33729257 70.77629366 49.25610352 74.08007812 C48.38369019 75.01811279 48.38369019 75.01811279 47.49365234 75.97509766 C43.99869217 79.71412067 40.42691324 83.35911375 36.79614258 86.96606445 C34.99914282 88.7764534 33.29643734 90.64812681 31.63110352 92.58007812 C31.10258789 93.18980469 30.57407227 93.79953125 30.02954102 94.42773438 C28.55897064 96.16067524 27.09953784 97.901608 25.64526367 99.64819336 C24.46262939 101.06853882 24.46262939 101.06853882 23.25610352 102.51757812 C24.09468903 102.50869568 24.93327454 102.49981323 25.79727173 102.49066162 C33.7126315 102.41040602 41.62785398 102.34955811 49.5435276 102.31032944 C53.61277291 102.28948323 57.68168111 102.26122059 61.75073242 102.21582031 C65.6800097 102.17225553 69.60896338 102.14841871 73.53846359 102.13806915 C75.035161 102.13069675 76.53184134 102.11629992 78.02840042 102.0946579 C80.13023954 102.06548055 82.23075357 102.0616278 84.33276367 102.06347656 C85.5274527 102.05459412 86.72214172 102.04571167 87.95303345 102.03656006 C91.97325869 102.62201569 94.10774367 103.99270923 97.25610352 106.51757812 C100.09209277 110.77156201 99.77536294 114.52469902 99.25610352 119.51757812 C97.63774862 123.32071214 95.70107951 125.30186748 92.25610352 127.51757812 C90.12243748 127.90068817 90.12243748 127.90068817 87.78456116 127.9119873 C86.44930138 127.92901199 86.44930138 127.92901199 85.08706665 127.94638062 C84.11812469 127.94345001 83.14918274 127.94051941 82.15087891 127.9375 C81.12444778 127.94596954 80.09801666 127.95443909 79.04048157 127.96316528 C75.64478188 127.98657975 72.2495341 127.98755637 68.85375977 127.98632812 C66.4949068 127.99342687 64.13605556 128.00112544 61.77720642 128.00939941 C56.83172811 128.02285438 51.88640947 128.02440831 46.94091797 128.01855469 C40.60082856 128.01265702 34.26150448 128.04324918 27.92156315 128.08367157 C23.04967617 128.10951003 18.17797442 128.11242946 13.30602837 128.10877991 C10.96841953 128.11047468 8.63080246 128.12015134 6.29326057 128.13792419 C3.02522551 128.1600373 -0.24124802 128.15044975 -3.50927734 128.1328125 C-4.47619507 128.14607574 -5.44311279 128.15933899 -6.43933105 128.17300415 C-11.06891555 128.11489385 -13.07592127 128.04147818 -16.82106018 125.10412598 C-20.12003422 120.66643453 -20.38737031 117.2291591 -20.34155273 111.74414062 C-19.23917777 105.79275683 -14.98731484 102.5417317 -10.74389648 98.51757812 C-9.20869914 96.82214133 -7.68753585 95.11388025 -6.18139648 93.39257812 C-2.85959991 89.69527411 0.56158008 86.1474074 4.13891602 82.69726562 C6.00814589 80.77285554 7.76760085 78.80441148 9.52563477 76.77929688 C13.18487955 72.56815325 16.98027557 68.50273482 20.81860352 64.45507812 C22.23161378 62.95922035 23.64436936 61.46312195 25.05688477 59.96679688 C25.76022949 59.22220215 26.46357422 58.47760742 27.18823242 57.71044922 C32.00589123 52.60156948 36.79304594 47.46417677 41.57592773 42.32275391 C42.71986691 41.09370911 43.86476172 39.86555323 45.01049805 38.63818359 C46.69880575 36.82924883 48.38408185 35.01753815 50.06860352 33.20507812 C50.57875 32.65948242 51.08889648 32.11388672 51.61450195 31.55175781 C54.23956792 28.75482167 54.23956792 28.75482167 56.25610352 25.51757812 C55.42782547 25.52646057 54.59954742 25.53534302 53.74617004 25.54449463 C45.9335125 25.62470308 38.1209936 25.68557419 30.30801868 25.72482681 C26.29142987 25.74568566 22.27518179 25.77397144 18.25878906 25.81933594 C14.38138679 25.86285558 10.50431188 25.88672805 6.62668419 25.8970871 C5.14869726 25.90446759 3.67072788 25.91888027 2.19288063 25.94049835 C0.11956961 25.96961574 -1.95239572 25.97353095 -4.02587891 25.97167969 C-5.79459602 25.98500336 -5.79459602 25.98500336 -7.5990448 25.99859619 C-11.41551436 25.41485139 -13.01096797 24.19348986 -15.74389648 21.51757812 C-18.44286905 17.46911928 -18.28009845 14.2679924 -17.74389648 9.51757812 C-14.17062843 1.05457484 -8.34398527 -0.07367393 0 0 Z " fill="#01022A" transform="translate(780.743896484375,566.482421875)"/>
<path d="M0 0 C11.42291899 9.6025335 19.95372325 22.00462048 22 37 C22.10350343 39.43284032 22.15810435 41.86801078 22.17700195 44.30297852 C22.18357315 45.00783386 22.19014435 45.71268921 22.19691467 46.43890381 C22.21649507 48.75223927 22.22827087 51.06551056 22.23828125 53.37890625 C22.24235678 54.17254011 22.2464323 54.96617397 22.25063133 55.78385735 C22.27141884 59.97821664 22.28575654 64.17254385 22.29516602 68.36694336 C22.30626413 72.6935796 22.34072343 77.01970635 22.38033772 81.34616184 C22.40647731 84.68077042 22.41485505 88.0152564 22.41844749 91.34995842 C22.42331398 92.94515392 22.43492984 94.54034392 22.45348549 96.13543892 C22.47784 98.36617923 22.47692049 100.59558342 22.4699707 102.82641602 C22.47583694 104.09405289 22.48170319 105.36168976 22.48774719 106.66773987 C21.91434958 110.58515864 20.74146958 112.20316903 18 115 C13.51288166 118.02811667 8.19960789 117.6403078 3 117 C-0.45658479 114.95426614 -1.7785359 113.33219615 -4 110 C-4.23809814 107.06251526 -4.23809814 107.06251526 -4.22363281 103.42407227 C-4.22404068 102.76015976 -4.22444855 102.09624725 -4.22486877 101.41221619 C-4.22506628 99.97009841 -4.22102785 98.52797527 -4.21326447 97.08587837 C-4.20301964 94.79282319 -4.2084376 92.50031021 -4.21868896 90.20726013 C-4.24661202 83.68731371 -4.25937087 77.16766505 -4.22998047 70.64770508 C-4.21311715 66.65626809 -4.22578083 62.66579397 -4.25643158 58.67445183 C-4.26248386 57.1632317 -4.25780641 55.65192435 -4.24155426 54.1407795 C-4.11977404 42.31103309 -6.30521227 33.05333881 -14.3125 24 C-22.03200176 16.96667617 -31.26523522 15.61564324 -41.328125 15.73046875 C-51.20843755 16.45572573 -58.5373242 20.58981145 -65 28 C-71.06614433 36.95841845 -71.82557184 45.3581375 -71.6640625 55.8359375 C-71.66515931 57.32899535 -71.66948392 58.82205391 -71.67684937 60.31509399 C-71.69013669 64.20923133 -71.67160173 68.10243257 -71.64239502 71.99645996 C-71.59667819 78.24763478 -71.58147834 84.49832076 -71.60194016 90.74962234 C-71.60156943 92.92037024 -71.57590333 95.08979796 -71.54824829 97.26034546 C-71.54756325 98.59592679 -71.54786675 99.93150912 -71.54931641 101.26708984 C-71.54010162 102.42558441 -71.53088684 103.58407898 -71.52139282 104.77767944 C-72.23417225 109.57661247 -74.52853675 112.70165007 -78.125 115.875 C-82.44244194 117.5644338 -86.43341833 117.80243448 -91 117 C-94.11886578 115.30904867 -96.39018854 113.21962291 -98 110 C-98.10232104 107.77062034 -98.13844447 105.53811259 -98.14526367 103.30639648 C-98.14862228 102.61830399 -98.1519809 101.93021149 -98.15544128 101.2212677 C-98.16496727 98.93785816 -98.16689582 96.65452195 -98.16796875 94.37109375 C-98.17118236 92.78125478 -98.17454651 91.19141611 -98.17805481 89.60157776 C-98.18405171 86.26164058 -98.18589435 82.92172929 -98.18530273 79.58178711 C-98.18520157 75.32060902 -98.19880323 71.0595993 -98.21607494 66.79846096 C-98.22725023 63.51000726 -98.22922018 60.22159338 -98.22869301 56.93312263 C-98.22986675 55.36359138 -98.23425421 53.79405889 -98.24202538 52.22454643 C-98.32078481 34.66042752 -94.80962699 20.08471765 -82.234375 7.171875 C-81.49703125 6.45515625 -80.7596875 5.7384375 -80 5 C-79.38640625 4.36578125 -78.7728125 3.7315625 -78.140625 3.078125 C-56.82543336 -17.50834214 -23.11673877 -16.77469796 0 0 Z " fill="#04042C" transform="translate(1158,577)"/>
<path d="M0 0 C8.22559734 2.96121504 11.73181332 9.86241689 15.35546875 17.28515625 C15.74317947 18.06386581 16.1308902 18.84257538 16.53034973 19.6448822 C17.75696613 22.11375497 18.97212538 24.58807739 20.1875 27.0625 C21.01427801 28.72755929 21.84174571 30.39227631 22.66992188 32.05664062 C23.46155939 33.65333765 24.25259581 35.25033287 25.04296875 36.84765625 C25.41068893 37.59048355 25.77840912 38.33331085 26.15727234 39.09864807 C27.9192503 42.68833039 29.55341735 46.26879142 31 50 C32.10591202 52.28271584 33.22877467 54.55027434 34.375 56.8125 C35.08087672 58.21476949 35.78659483 59.61711882 36.4921875 61.01953125 C36.88374023 61.79635254 37.27529297 62.57317383 37.67871094 63.37353516 C40.29642332 68.57703659 42.89643793 73.78940856 45.5 79 C46.55202062 81.10419802 47.60409898 83.20836718 48.65625 85.3125 C49.4375 86.875 50.21875 88.4375 51 90 C53.1105642 87.30306186 54.83704779 84.61395851 56.41796875 81.578125 C56.86358154 80.72557129 57.30919434 79.87301758 57.76831055 78.99462891 C58.23664307 78.08890137 58.70497559 77.18317383 59.1875 76.25 C59.91996948 74.84306885 59.91996948 74.84306885 60.66723633 73.40771484 C63.89173988 67.19556257 67.04564669 60.95103359 70.15112305 54.67871094 C72.66778626 49.61319388 75.31498558 44.62613434 77.99853516 39.64746094 C80.44046132 35.09828278 82.769967 30.50103375 85.0625 25.875 C86.37168367 23.24833255 87.68483658 20.62367788 89 18 C89.47034668 17.05785645 89.47034668 17.05785645 89.95019531 16.09667969 C90.84975571 14.30792033 91.76828566 12.52873943 92.6875 10.75 C93.20699219 9.73421875 93.72648438 8.7184375 94.26171875 7.671875 C96.22102863 4.66026161 97.96801706 2.92535415 101 1 C106.20198946 -0.02979704 110.73688299 0.39099716 115.5 2.6875 C118.85047934 5.78669339 120.78686892 8.06220376 121.29443359 12.67700195 C120.92082037 16.89362679 119.33526605 20.09803611 117.4140625 23.79296875 C117.04173996 24.53190369 116.66941742 25.27083862 116.28581238 26.03216553 C115.0771553 28.42337858 113.85149754 30.80539573 112.625 33.1875 C111.78514919 34.83946675 110.94620332 36.49189386 110.1081543 38.14477539 C105.33724259 47.533306 100.5048175 56.89029415 95.55078125 66.18359375 C92.47860101 71.95697872 89.48782522 77.77252102 86.48904419 83.58422852 C85.51002997 85.48057203 84.52959924 87.37617535 83.54858398 89.27148438 C83.2308049 89.8854306 82.91302582 90.49937683 82.58561707 91.13192749 C81.9531496 92.35379512 81.32067287 93.57565795 80.68818665 94.79751587 C78.78083249 98.48429784 76.88411761 102.1763787 74.9921875 105.87109375 C74.12010097 107.56005558 73.24772933 109.24887023 72.375 110.9375 C71.99794922 111.68128906 71.62089844 112.42507813 71.23242188 113.19140625 C68.32832419 118.77983207 65.36734764 123.60744257 59.8125 126.875 C53.61224514 128.7045834 48.36573264 128.73686754 42.1875 126.8125 C35.03928833 122.74783062 32.3625239 117.22239833 29.09765625 110.0078125 C28.12897428 107.92623922 27.15765446 105.84589202 26.18408203 103.76660156 C25.66968567 102.66529907 25.15528931 101.56399658 24.62530518 100.42932129 C21.81943055 94.50905122 18.87571079 88.6579925 15.93359375 82.8046875 C15.316599 81.57453452 14.69970711 80.34432994 14.08291626 79.11407471 C12.20328731 75.36662168 10.32065904 71.62068006 8.4375 67.875 C4.15924784 59.36528563 -0.10772982 50.85039092 -4.34405518 42.31970215 C-5.92452077 39.15131457 -7.52532482 35.99389468 -9.12841797 32.83691406 C-10.05413291 30.97774743 -10.97884344 29.1180802 -11.90234375 27.2578125 C-12.32383194 26.44263153 -12.74532013 25.62745056 -13.17958069 24.78756714 C-15.78723986 19.4600479 -16.78555523 14.93351234 -16 9 C-13.16946746 1.92366865 -7.38598482 -0.9232481 0 0 Z " fill="#04052C" transform="translate(471,567)"/>
<path d="M0 0 C8.44988995 7.19403475 14.38362674 15.80135246 15.43359375 27.05859375 C15.68129202 39.66206439 12.09768461 47.93578133 5.375 58.5 C-3.39777747 67.27277747 -14.125672 71.76109447 -26.5625 72.1875 C-37.84506089 71.67390325 -46.40477553 67.7339823 -54.6875 60.1875 C-64.05536222 49.74902495 -66.89006117 39.94560675 -66.29296875 26.125 C-65.90707754 21.00572615 -64.78805045 17.01101479 -61.875 12.75 C-61.43929687 12.07066406 -61.00359375 11.39132812 -60.5546875 10.69140625 C-54.18766459 1.48879663 -45.35202331 -5.55847252 -34.25390625 -7.92578125 C-21.4939607 -9.66482145 -10.52923991 -7.64305232 0 0 Z " fill="#FBFBFB" transform="translate(698.875,599.25)"/>
<path d="M0 0 C10.71156682 5.61210554 16.92264909 13.82395358 20.640625 25.36328125 C22.79812634 37.44059852 20.19797761 49.13983884 13.375 59.25 C5.93878799 68.71426983 -3.33024981 73.35083519 -15 75.375 C-27.28098702 76.44826677 -37.43308922 73.14460465 -47 65.375 C-54.0309095 58.85659416 -59.26999388 48.91110128 -60.3359375 39.3671875 C-60.49951274 26.31388337 -56.97800778 16.66647297 -48 7.28515625 C-34.21862531 -5.93019769 -16.95699365 -7.79047898 0 0 Z " fill="#F8F8FA" transform="translate(986,595.625)"/>
<path d="M0 0 C4.86480607 2.83724591 8.97215749 6.65295259 11 12 C11.72126941 18.20104346 11.63518284 23.73525244 8 29 C4.29647468 33.304097 0.6246401 36.38691032 -5.1015625 37.35546875 C-11.26894033 37.74755291 -15.29019293 35.89813964 -20 32 C-25.01192511 26.72428936 -26.59534559 21.75727782 -26.4453125 14.56640625 C-25.45596124 8.86461871 -21.43656879 5.43656879 -17.5 1.5 C-11.71980694 -0.9772256 -6.15934432 -1.15616742 0 0 Z " fill="#402AF5" transform="translate(974,613)"/>
<path d="M0 0 C2.5 0.25 2.5 0.25 4.5 2.25 C4.75396729 4.60302734 4.75396729 4.60302734 4.75878906 7.5859375 C4.76509338 8.70049316 4.77139771 9.81504883 4.77789307 10.96337891 C4.7738446 12.17171387 4.76979614 13.38004883 4.765625 14.625 C4.76753845 15.86040527 4.7694519 17.09581055 4.77142334 18.36865234 C4.7731361 21.65591407 4.76506699 24.94298787 4.75390625 28.23022461 C4.75000397 30.2479453 4.75389171 32.26549201 4.76074219 34.28320312 C4.77306004 38.14721828 4.77160978 42.01097428 4.765625 45.875 C4.76967346 47.08333496 4.77372192 48.29166992 4.77789307 49.53662109 C4.77158875 50.65117676 4.76528442 51.76573242 4.75878906 52.9140625 C4.75640228 54.39060303 4.75640228 54.39060303 4.75396729 55.89697266 C4.5 58.25 4.5 58.25 2.5 60.25 C0 60.5 0 60.5 -2.5 60.25 C-5.1080523 57.6419477 -4.75291786 56.5461806 -4.75878906 52.9140625 C-4.76509338 51.79950684 -4.77139771 50.68495117 -4.77789307 49.53662109 C-4.7738446 48.32828613 -4.76979614 47.11995117 -4.765625 45.875 C-4.76753845 44.63959473 -4.7694519 43.40418945 -4.77142334 42.13134766 C-4.7731361 38.84408593 -4.76506699 35.55701213 -4.75390625 32.26977539 C-4.75000397 30.2520547 -4.75389171 28.23450799 -4.76074219 26.21679688 C-4.77306004 22.35278172 -4.77160978 18.48902572 -4.765625 14.625 C-4.76967346 13.41666504 -4.77372192 12.20833008 -4.77789307 10.96337891 C-4.77158875 9.84882324 -4.76528442 8.73426758 -4.75878906 7.5859375 C-4.75719788 6.60157715 -4.75560669 5.6172168 -4.75396729 4.60302734 C-4.38565753 1.19060779 -3.38877243 0.33887724 0 0 Z " fill="#3F21E6" transform="translate(283.5,569.75)"/>
<path d="M0 0 C2.4375 0.8125 2.4375 0.8125 4.4375 2.8125 C4.86000211 7.21184757 4.80909402 11.62589044 4.80810547 16.04321289 C4.81247726 18.23858279 4.8487845 20.43193941 4.88671875 22.62695312 C4.89258727 24.02082645 4.89655643 25.41470934 4.8984375 26.80859375 C4.90665527 28.07888428 4.91487305 29.3491748 4.92333984 30.65795898 C4.4375 33.8125 4.4375 33.8125 2.54150391 35.76196289 C0.4375 36.8125 0.4375 36.8125 -1.6875 36.625 C-3.5625 35.8125 -3.5625 35.8125 -5.5625 33.8125 C-5.96198471 29.41248663 -5.89151561 24.99791838 -5.87817383 20.58178711 C-5.87501683 18.38670079 -5.89845761 16.19296615 -5.92382812 13.99804688 C-5.92610143 12.60416837 -5.92680447 11.21028623 -5.92578125 9.81640625 C-5.92876221 8.54611572 -5.93174316 7.2758252 -5.93481445 5.96704102 C-5.5625 2.8125 -5.5625 2.8125 -4.19995117 0.86303711 C-2.5625 -0.1875 -2.5625 -0.1875 0 0 Z " fill="#3836EE" transform="translate(265.5625,582.1875)"/>
<path d="M0 0 C0.98262817 -0.00379669 1.96525635 -0.00759338 2.97766113 -0.01150513 C6.22021565 -0.01890493 9.46187107 0.00246002 12.7043457 0.02490234 C14.95685216 0.02728664 17.20936063 0.02819212 19.46186829 0.02767944 C24.17864457 0.03080621 28.89511663 0.04736577 33.61181641 0.07421875 C39.66833751 0.10825675 45.72452523 0.11584563 51.78113079 0.11432838 C56.42984724 0.11487117 61.07849029 0.12582261 65.72718239 0.14033127 C67.96118426 0.14670978 70.19519446 0.15064061 72.42920494 0.15211868 C75.54409456 0.15643718 78.65862466 0.17390518 81.7734375 0.1953125 C82.70281631 0.19440613 83.63219513 0.19349976 84.58973694 0.19256592 C85.43509003 0.20109589 86.28044312 0.20962585 87.15141296 0.21841431 C87.88788402 0.221766 88.62435507 0.22511768 89.38314342 0.22857094 C91.19262695 0.48583984 91.19262695 0.48583984 93.19262695 2.48583984 C91.24896177 4.42950503 88.30195797 3.61699787 85.7141571 3.62928772 C84.31469597 3.62849464 84.31469597 3.62849464 82.88696289 3.62768555 C81.9097377 3.63115997 80.93251251 3.6346344 79.92567444 3.63821411 C77.79543379 3.64558656 75.66518539 3.65092397 73.534935 3.65450478 C70.16452235 3.66164754 66.79425723 3.67729801 63.42388916 3.69584656 C53.83819619 3.74841635 44.25258203 3.79629746 34.66674805 3.81176758 C28.81048025 3.82184039 22.95458003 3.85115055 17.09845734 3.89308739 C14.86416655 3.90541553 12.62982387 3.91051535 10.39550018 3.90828896 C7.26855678 3.9059402 4.14266994 3.92807193 1.01586914 3.95581055 C0.09099197 3.94920914 -0.83388519 3.94260773 -1.78678894 3.93580627 C-5.98917859 3.99706726 -8.21711539 4.1133227 -11.84320068 6.40177917 C-15.39187621 10.16705723 -16.11297848 13.39361302 -16.80737305 18.48583984 C-17.13737305 18.48583984 -17.46737305 18.48583984 -17.80737305 18.48583984 C-18.3774488 8.79455196 -18.3774488 8.79455196 -14.80737305 4.48583984 C-10.25742446 -0.30529319 -6.2192944 -0.07570483 0 0 Z " fill="#2C2D3E" transform="translate(780.807373046875,566.51416015625)"/>
<path d="M0 0 C3 0.25 3 0.25 5 2.25 C5.3990639 6.66843549 5.32903357 11.10119839 5.31567383 15.53564453 C5.31251188 17.74171234 5.33597576 19.94644169 5.36132812 22.15234375 C5.36360088 23.54947747 5.36430472 24.94661481 5.36328125 26.34375 C5.36775269 28.25704102 5.36775269 28.25704102 5.37231445 30.20898438 C5.24945068 31.21251953 5.12658691 32.21605469 5 33.25 C2 35.25 2 35.25 -0.5625 35 C-3 34.25 -3 34.25 -5 32.25 C-5.25878906 29.30078125 -5.25878906 29.30078125 -5.265625 25.5625 C-5.26753845 24.90419189 -5.2694519 24.24588379 -5.27142334 23.56762695 C-5.2727845 22.1756146 -5.26909283 20.78358953 -5.26074219 19.39160156 C-5.250041 17.25817411 -5.26063906 15.12558869 -5.2734375 12.9921875 C-5.27211589 11.64062314 -5.26955347 10.2890593 -5.265625 8.9375 C-5.26336914 7.70386719 -5.26111328 6.47023438 -5.25878906 5.19921875 C-4.8991965 1.10122052 -4.09442878 0.3412024 0 0 Z " fill="#511DE5" transform="translate(302,582.75)"/>
<path d="M0 0 C2.20869732 2.80025527 3.92262538 5.601295 5.53125 8.78125 C15.61274395 28.2793174 26.47739649 42.43798026 47.859375 49.77734375 C53.78650088 51.64531189 59.81756291 52.43971664 66 53 C60.87714872 61.46457877 55.1230352 69.25072608 49 77 C48.01 76.01 48.01 76.01 47 75 C48.375 73 48.375 73 50 71 C50.66 71 51.32 71 52 71 C52.495 69.02 52.495 69.02 53 67 C53.66 67 54.32 67 55 67 C55.12375 66.401875 55.2475 65.80375 55.375 65.1875 C56 63 56 63 58 60 C58.66 60 59.32 60 60 60 C60.33 58.35 60.66 56.7 61 55 C60.01 55.061875 59.02 55.12375 58 55.1875 C54.23624488 55.19510355 51.34399887 54.20857601 47.89453125 52.77734375 C45.86777281 51.90380433 45.86777281 51.90380433 43.125 51.1875 C33.99166587 47.71683303 26.95635799 41.71227526 20 35 C19.28714844 34.31292969 18.57429688 33.62585938 17.83984375 32.91796875 C15.52045753 30.50009479 13.84201714 27.79273566 12 25 C11.50717529 24.52570557 11.01435059 24.05141113 10.5065918 23.56274414 C8.83240454 21.82615807 7.97583149 20.23931447 6.95703125 18.05859375 C6.60576172 17.31029297 6.25449219 16.56199219 5.89257812 15.79101562 C5.53615234 15.01435547 5.17972656 14.23769531 4.8125 13.4375 C4.26045898 12.26670898 4.26045898 12.26670898 3.69726562 11.07226562 C1 5.2723939 1 5.2723939 1 3 C0.34 2.67 -0.32 2.34 -1 2 C-0.67 1.34 -0.34 0.68 0 0 Z " fill="#5121DC" transform="translate(247,660)"/>
<path d="M0 0 C7.79792241 -0.0698019 15.59577033 -0.12296344 23.39392757 -0.15543652 C27.01574248 -0.17102948 30.63734214 -0.19214953 34.2590332 -0.22631836 C37.7603775 -0.25914149 41.261516 -0.2769008 44.7630024 -0.28463173 C46.73537617 -0.29279505 48.70766826 -0.31617711 50.67991638 -0.33988953 C57.70549744 -0.34119377 63.53600547 0.18147453 70 3 C70.69967392 3.2906282 71.39934784 3.58125641 72.120224 3.88069153 C78.01224347 6.40957328 82.40458712 10.61733772 87 15 C86.34 15.66 85.68 16.32 85 17 C84.360625 16.29875 83.72125 15.5975 83.0625 14.875 C74.71354818 6.64298027 65.26939393 2.90928789 53.56640625 2.70703125 C51.23159582 2.72749453 48.89688119 2.76327632 46.5625 2.8125 C44.69875732 2.82953979 44.69875732 2.82953979 42.79736328 2.84692383 C38.19385093 2.88951139 33.59099825 2.95991722 28.987854 3.03112793 C24.45030728 3.09965139 19.91285917 3.14575418 15.375 3.1875 C13.57977905 3.22484253 13.57977905 3.22484253 11.74829102 3.26293945 C10.09011353 3.27780396 10.09011353 3.27780396 8.3984375 3.29296875 C7.42567871 3.3086792 6.45291992 3.32438965 5.45068359 3.34057617 C2.60354883 2.94490442 1.74513697 2.22411514 0 0 Z " fill="#136CF9" transform="translate(82,492)"/>
<path d="M0 0 C-0.49371094 0.4846875 -0.98742187 0.969375 -1.49609375 1.46875 C-6.15036779 6.33841298 -8 9.22019101 -8 16 C-7.78130844 21.46728889 -5.84068088 24.15931912 -2 28 C2.56796337 30.78534352 5.93129389 31.36316396 11.25 31.25 C13.08304687 31.22679687 13.08304687 31.22679687 14.953125 31.203125 C17.91664305 31.20281459 17.91664305 31.20281459 20 30 C20.66 30.33 21.32 30.66 22 31 C22 30.34 22 29.68 22 29 C22.99 29.33 23.98 29.66 25 30 C21.0074642 33.9925358 15.59641603 34.19385513 10.1875 34.4375 C2.61302478 34.30444774 -3.26979099 31.79679947 -8.5625 26.375 C-11.70015134 21.19105431 -11.58682212 15.89233716 -11 10 C-9.72264872 5.94292054 -7.93950017 2.93950017 -4.9375 -0.0625 C-3 -1 -3 -1 0 0 Z " fill="#3D21A6" transform="translate(302,657)"/>
<path d="M0 0 C1 3 1 3 0.01879883 5.39404297 C-0.49658447 6.33393066 -1.01196777 7.27381836 -1.54296875 8.2421875 C-2.11668213 9.29897705 -2.69039551 10.3557666 -3.28149414 11.44458008 C-3.91047607 12.57661865 -4.53945801 13.70865723 -5.1875 14.875 C-5.82228271 16.03217529 -6.45706543 17.18935059 -7.11108398 18.3815918 C-8.42131335 20.76644908 -9.73903134 23.14693459 -11.06347656 25.52392578 C-12.30162073 27.74640393 -13.53574456 29.97112966 -14.76464844 32.19873047 C-16.35313578 35.07617513 -17.95451062 37.9459166 -19.5625 40.8125 C-20.27539185 42.09906494 -20.27539185 42.09906494 -21.00268555 43.41162109 C-23.56458977 47.91733662 -26.09338255 51.50898016 -30 55 C-30.63164062 55.59425781 -31.26328125 56.18851563 -31.9140625 56.80078125 C-32.47867187 57.29964844 -33.04328125 57.79851563 -33.625 58.3125 C-34.19476563 58.82425781 -34.76453125 59.33601562 -35.3515625 59.86328125 C-37 61 -37 61 -40 61 C-38.73462163 57.2038649 -37.44944589 56.84505245 -34 55 C-33.278125 54.71125 -32.55625 54.4225 -31.8125 54.125 C-29.31041375 52.57198095 -29.03424834 50.68904569 -28 48 C-26.515 47.505 -26.515 47.505 -25 47 C-23.97718482 44.90280128 -23.97718482 44.90280128 -23.3125 42.4375 C-23.06113281 41.61121094 -22.80976563 40.78492188 -22.55078125 39.93359375 C-22.36902344 39.29550781 -22.18726563 38.65742187 -22 38 C-21.34 38 -20.68 38 -20 38 C-19.78859375 37.23171875 -19.5771875 36.4634375 -19.359375 35.671875 C-17.47615554 30.58501783 -14.87500383 25.98781178 -12.25 21.25 C-11.48042969 19.84234375 -11.48042969 19.84234375 -10.6953125 18.40625 C-7.27347569 12.18160213 -3.6980793 6.06432128 0 0 Z " fill="#3C1FAC" transform="translate(367,626)"/>
<path d="M0 0 C0.99 0.33 1.98 0.66 3 1 C3 1.66 3 2.32 3 3 C36.99 3.33 70.98 3.66 106 4 C106 4.33 106 4.66 106 5 C92.62241077 5.17683494 79.24473551 5.34279966 65.86683941 5.49477577 C59.65536652 5.5656836 53.44398663 5.64037633 47.23266602 5.72363281 C41.24165045 5.8037985 35.25059367 5.8741346 29.25937843 5.93757248 C26.97033223 5.96355379 24.68132384 5.99311446 22.39237022 6.02626419 C19.19349021 6.07198853 15.9947139 6.10513821 12.7956543 6.13525391 C11.84331406 6.1517952 10.89097382 6.16833649 9.90977478 6.18537903 C9.03899292 6.19104385 8.16821106 6.19670868 7.27104187 6.20254517 C6.13585381 6.21637206 6.13585381 6.21637206 4.97773266 6.23047829 C3 6 3 6 0 4 C0 2.68 0 1.36 0 0 Z " fill="#090A2D" transform="translate(764,688)"/>
<path d="M0 0 C3.8487359 1.28291197 4.15104596 2.45617143 6 6 C6.73480664 7.69325009 7.46832811 9.38727456 8.171875 11.09375 C9.39038212 13.89861545 10.81036833 16.59354861 12.23046875 19.30078125 C13 21 13 21 13 23 C13.66 23 14.32 23 15 23 C18.75398633 32.22095672 18.75398633 32.22095672 20.125 36.5625 C20.73985111 39.15773072 20.73985111 39.15773072 23 40 C23.33333333 41.66666667 23.66666667 43.33333333 24 45 C24.66 45.33 25.32 45.66 26 46 C27.04808041 47.97522846 28.0520411 49.97481509 29 52 C28.01 52.495 28.01 52.495 27 53 C26.69408936 52.41323486 26.38817871 51.82646973 26.07299805 51.22192383 C25.14578346 49.44362603 24.21844377 47.66539346 23.29101562 45.88720703 C22.21258223 43.81933398 21.13446255 41.7512973 20.05664062 39.68310547 C17.34732771 34.48708693 14.63148922 29.29479841 11.89453125 24.11328125 C11.40702393 23.18862061 10.9195166 22.26395996 10.41723633 21.3112793 C9.49888278 19.57059987 8.57828662 17.83110102 7.6550293 16.09301758 C4.87571734 10.81905712 2.34974473 5.47890898 0 0 Z " fill="#1464FA" transform="translate(91,542)"/>
<path d="M0 0 C1.37115967 0.00386719 1.37115967 0.00386719 2.77001953 0.0078125 C8.6330895 0.13547869 13.94189619 0.99646858 19.625 2.4375 C15.98112902 4.43512127 14.68307029 4.33682611 10.625 3.4375 C7.39584269 3.27732792 4.17001735 3.29788425 0.9375 3.3125 C0.07060547 3.30863281 -0.79628906 3.30476563 -1.68945312 3.30078125 C-2.51767578 3.30207031 -3.34589844 3.30335938 -4.19921875 3.3046875 C-4.95291748 3.30581543 -5.70661621 3.30694336 -6.4831543 3.30810547 C-8.46413077 3.32159095 -8.46413077 3.32159095 -10.375 4.4375 C-13.74916015 4.71392664 -17.12301561 4.88455009 -20.50390625 5.05859375 C-21.92509766 5.24615234 -21.92509766 5.24615234 -23.375 5.4375 C-23.705 6.0975 -24.035 6.7575 -24.375 7.4375 C-25.035 6.7775 -25.695 6.1175 -26.375 5.4375 C-17.49941356 1.56652772 -9.68036543 -0.0392381 0 0 Z " fill="#7B34F4" transform="translate(342.375,491.5625)"/>
<path d="M0 0 C0.66 0.33 1.32 0.66 2 1 C1.34 2.32 0.68 3.64 0 5 C-0.66 5 -1.32 5 -2 5 C-3.09506492 8.28519475 -3.09960608 10.73663415 -3.0625 14.1875 C-3.05347656 15.27417969 -3.04445313 16.36085938 -3.03515625 17.48046875 C-3.02355469 18.31191406 -3.01195313 19.14335938 -3 20 C-2.34 20.33 -1.68 20.66 -1 21 C2.53995655 26.23297925 4.69542814 32.14993296 7 38 C3.51985696 36.83995232 3.37731074 36.39706743 1.7734375 33.2890625 C1.3815625 32.53882813 0.9896875 31.78859375 0.5859375 31.015625 C0.18632813 30.22671875 -0.21328125 29.4378125 -0.625 28.625 C-1.03234375 27.84382812 -1.4396875 27.06265625 -1.859375 26.2578125 C-5.18994043 19.81724889 -7.23507971 14.36597088 -6 7 C-4.34044683 4.26149535 -2.37532632 2.13496592 0 0 Z " fill="#1F7AFB" transform="translate(80,493)"/>
<path d="M0 0 C1.32 0 2.64 0 4 0 C4.33 0.66 4.66 1.32 5 2 C34.205 2.495 34.205 2.495 64 3 C64 3.33 64 3.66 64 4 C42.22 4 20.44 4 -2 4 C-1.34 2.68 -0.68 1.36 0 0 Z " fill="#E4E2E9" transform="translate(806,665)"/>
<path d="M0 0 C0 0.66 0 1.32 0 2 C-1.56020867 2.65134925 -3.12328579 3.29582964 -4.6875 3.9375 C-5.55761719 4.29714844 -6.42773438 4.65679688 -7.32421875 5.02734375 C-12.53952502 6.92312661 -17.42580826 7.1557058 -22.9375 7.125 C-23.62779297 7.12886719 -24.31808594 7.13273438 -25.02929688 7.13671875 C-29.12408324 7.12895612 -32.98358696 6.79196877 -37 6 C-35 4 -35 4 -33.09570312 3.82055664 C-31.95004883 3.86490845 -31.95004883 3.86490845 -30.78125 3.91015625 C-29.5125708 3.94314819 -29.5125708 3.94314819 -28.21826172 3.97680664 C-27.32123535 4.00508545 -26.42420898 4.03336426 -25.5 4.0625 C-16.44457595 4.22273736 -8.32729819 0 0 0 Z " fill="#5A23E1" transform="translate(270,759)"/>
<path d="M0 0 C3.96 0 7.92 0 12 0 C6.82012462 8.44544899 1.13129423 16.2402735 -5 24 C-5.66 23.34 -6.32 22.68 -7 22 C-5.625 20 -5.625 20 -4 18 C-3.34 18 -2.68 18 -2 18 C-1.67 16.68 -1.34 15.36 -1 14 C-0.34 14 0.32 14 1 14 C1.12375 13.401875 1.2475 12.80375 1.375 12.1875 C2 10 2 10 4 7 C4.66 7 5.32 7 6 7 C6.33 5.35 6.66 3.7 7 2 C4.69 2 2.38 2 0 2 C0 1.34 0 0.68 0 0 Z " fill="#4217C5" transform="translate(301,713)"/>
<path d="M0 0 C2.5 0.125 2.5 0.125 3.5 1.125 C3.77314815 6.86111111 3.77314815 6.86111111 3.5 9.125 C2.84 9.785 2.18 10.445 1.5 11.125 C-2.03571429 10.58928571 -2.03571429 10.58928571 -3.5 9.125 C-3.6328125 7.3125 -3.6328125 7.3125 -3.625 5.125 C-3.62757813 4.403125 -3.63015625 3.68125 -3.6328125 2.9375 C-3.42186711 0.05871588 -2.89175802 0.1445879 0 0 Z " fill="#2952F7" transform="translate(247.5,597.875)"/>
<path d="M0 0 C0.66 0 1.32 0 2 0 C-0.06060016 4.51404855 -3.13750706 7.66139582 -6.5 11.25 C-7.09425781 11.8996875 -7.68851563 12.549375 -8.30078125 13.21875 C-9.15736328 14.13914062 -9.15736328 14.13914062 -10.03125 15.078125 C-10.55267578 15.63918945 -11.07410156 16.20025391 -11.61132812 16.77832031 C-13 18 -13 18 -15 18 C-15.268125 18.598125 -15.53625 19.19625 -15.8125 19.8125 C-16.98493467 21.97224808 -18.19369282 23.35790256 -20 25 C-20.66 24.67 -21.32 24.34 -22 24 C-17.60552592 18.81423798 -12.99535496 13.95170556 -8.1484375 9.1875 C-6.17316034 7.17630871 -4.35752769 5.10904569 -2.5625 2.9375 C-1.716875 1.968125 -0.87125 0.99875 0 0 Z " fill="#090B2C" transform="translate(793,640)"/>
<path d="M0 0 C0.99 0 1.98 0 3 0 C3 0.66 3 1.32 3 2 C4.18335938 1.98839844 5.36671875 1.97679687 6.5859375 1.96484375 C14.79860372 1.90927062 22.83875394 1.94693599 31 3 C30.67 3.66 30.34 4.32 30 5 C26.29173349 5.05837668 22.5835863 5.09372277 18.875 5.125 C17.30492187 5.15013672 17.30492187 5.15013672 15.703125 5.17578125 C5.40768119 5.24094229 5.40768119 5.24094229 1 3 C0.67 2.01 0.34 1.02 0 0 Z " fill="#0F0F24" transform="translate(653,692)"/>
<path d="M0 0 C1.46953125 0.08217773 1.46953125 0.08217773 2.96875 0.16601562 C3.98453125 0.23884766 5.0003125 0.31167969 6.046875 0.38671875 C7.078125 0.44794922 8.109375 0.50917969 9.171875 0.57226562 C11.71478528 0.72531115 14.25583364 0.89312357 16.796875 1.07421875 C16.796875 1.40421875 16.796875 1.73421875 16.796875 2.07421875 C16.21719971 2.08356445 15.63752441 2.09291016 15.0402832 2.10253906 C12.39580554 2.15645945 9.75305607 2.24006004 7.109375 2.32421875 C5.74135742 2.34548828 5.74135742 2.34548828 4.34570312 2.3671875 C-1.06693928 2.56401086 -4.31903787 2.91549919 -8.203125 7.07421875 C-10.28946333 10.20372624 -10.69961921 13.38184294 -11.203125 17.07421875 C-11.533125 17.07421875 -11.863125 17.07421875 -12.203125 17.07421875 C-12.77175245 7.40755208 -12.77175245 7.40755208 -9.203125 3.07421875 C-6.06791067 0.21314262 -4.20689863 -0.26904584 0 0 Z " fill="#12142F" transform="translate(775.203125,567.92578125)"/>
<path d="M0 0 C0 0.33 0 0.66 0 1 C-1.28197266 1.09087891 -1.28197266 1.09087891 -2.58984375 1.18359375 C-4.24693359 1.30927734 -4.24693359 1.30927734 -5.9375 1.4375 C-7.03964844 1.51871094 -8.14179687 1.59992187 -9.27734375 1.68359375 C-11.91109903 1.70418084 -11.91109903 1.70418084 -13 3 C-15.26008624 3.45318676 -17.53409423 3.83787852 -19.8125 4.1875 C-21.67841797 4.48720703 -21.67841797 4.48720703 -23.58203125 4.79296875 C-26.93189702 4.99587491 -28.27733233 4.84483024 -31 3 C-20.87660571 -0.90075743 -10.65281226 -0.28171002 0 0 Z " fill="#1F213E" transform="translate(1131,565)"/>
<path d="M0 0 C0 4.93924691 -3.67491398 7.59012126 -7 11 C-10.82294288 14.60809981 -14.62154643 18.08103095 -19 21 C-19.99 20.67 -20.98 20.34 -22 20 C-20.625 18.5 -20.625 18.5 -19 17 C-18.34 17 -17.68 17 -17 17 C-16.67 16.34 -16.34 15.68 -16 15 C-15.01 14.67 -14.02 14.34 -13 14 C-12.67 13.01 -12.34 12.02 -12 11 C-10.33333333 10.33333333 -8.66666667 9.66666667 -7 9 C-6.67 8.01 -6.34 7.02 -6 6 C-5.34 5.67 -4.68 5.34 -4 5 C-3.67 4.01 -3.34 3.02 -3 2 C-2.01 1.34 -1.02 0.68 0 0 Z " fill="#4814D5" transform="translate(293,738)"/>
<path d="M0 0 C0.66 0.99 1.32 1.98 2 3 C1.01 3.33 0.02 3.66 -1 4 C-2.60278493 8.8083548 -2.47185629 13.87664668 -1.375 18.8125 C-0.90918115 21.52977662 -1.55716218 22.70843405 -3 25 C-3.66 25 -4.32 25 -5 25 C-5.13558695 21.95682614 -5.23437239 18.91974438 -5.3125 15.875 C-5.35439453 15.0190625 -5.39628906 14.163125 -5.43945312 13.28125 C-5.525699 8.79646437 -5.42265645 5.91343774 -2.48046875 2.3828125 C-1.66191406 1.59648438 -0.84335937 0.81015625 0 0 Z " fill="#3412AF" transform="translate(337,627)"/>
<path d="M0 0 C0.625 1.8125 0.625 1.8125 1 4 C0.01 5.485 0.01 5.485 -1 7 C-1.66 7 -2.32 7 -3 7 C-2.67 7.99 -2.34 8.98 -2 10 C-2.66 10.66 -3.32 11.32 -4 12 C-4.60713803 13.85483454 -5.14131052 15.73421385 -5.625 17.625 C-5.88539063 18.62789062 -6.14578125 19.63078125 -6.4140625 20.6640625 C-6.60742188 21.43492187 -6.80078125 22.20578125 -7 23 C-9 20 -9 20 -8.84375 17.23828125 C-7.87190213 13.50836511 -6.37610399 10.55141597 -4.5 7.1875 C-3.8709375 6.04667969 -3.241875 4.90585937 -2.59375 3.73046875 C-1 1 -1 1 0 0 Z " fill="#0E1031" transform="translate(617,594)"/>
<path d="M0 0 C0.99 0.33 1.98 0.66 3 1 C-0.448017 4.448017 -4.41638435 4.93673446 -9.12890625 5.125 C-12.08861638 5.125 -15.04167116 5.08743829 -18 5 C-18 4.34 -18 3.68 -18 3 C-14.52750546 1.26375273 -10.56977675 1.98904275 -6.75 2.0625 C-4.03746987 2.19655806 -4.03746987 2.19655806 -2 1 C-1.34 1.33 -0.68 1.66 0 2 C0 1.34 0 0.68 0 0 Z " fill="#371C9D" transform="translate(324,686)"/>
<path d="M0 0 C6.53504595 5.11438379 6.53504595 5.11438379 8 9 C8.265625 11.69140625 8.265625 11.69140625 8.25 14.5625 C8.25515625 15.51253906 8.2603125 16.46257813 8.265625 17.44140625 C8 20 8 20 6 23 C5.94392578 21.69675781 5.94392578 21.69675781 5.88671875 20.3671875 C5.36711899 10.44292176 5.36711899 10.44292176 0.3125 2.125 C-0.120625 1.75375 -0.55375 1.3825 -1 1 C-0.67 0.67 -0.34 0.34 0 0 Z " fill="#592BF3" transform="translate(977,616)"/>
<path d="M0 0 C9.47373241 2.84211972 15.85799538 7.18864374 23 14 C22.34 14.66 21.68 15.32 21 16 C20.360625 15.29875 19.72125 14.5975 19.0625 13.875 C13.8240845 8.65146636 7.99276611 5.27264899 1 3 C0.67 2.01 0.34 1.02 0 0 Z " fill="#246CFB" transform="translate(146,493)"/>
<path d="M0 0 C0.598125 0.20625 1.19625 0.4125 1.8125 0.625 C0.1625 2.275 -1.4875 3.925 -3.1875 5.625 C-2.671875 6.49125 -2.15625 7.3575 -1.625 8.25 C-0.01967031 12.01903493 -0.16838955 13.73385099 -1.1875 17.625 C-1.8475 17.625 -2.5075 17.625 -3.1875 17.625 C-3.14625 16.696875 -3.105 15.76875 -3.0625 14.8125 C-2.91613661 11.46690281 -2.91613661 11.46690281 -5.1875 8.625 C-5.5 5.0625 -5.5 5.0625 -5.1875 1.625 C-2.1875 -0.375 -2.1875 -0.375 0 0 Z " fill="#4916CA" transform="translate(340.1875,602.375)"/>
<path d="M0 0 C-1.11799986 1.33920838 -2.24461897 2.67122556 -3.375 4 C-4.00148438 4.7425 -4.62796875 5.485 -5.2734375 6.25 C-6.12808594 7.11625 -6.12808594 7.11625 -7 8 C-7.66 8 -8.32 8 -9 8 C-9.33 12.29 -9.66 16.58 -10 21 C-10.33 21 -10.66 21 -11 21 C-11.47986873 13.74865034 -11.33466361 8.05077616 -7 2 C-3.75 -1.25 -3.75 -1.25 0 0 Z " fill="#5138B2" transform="translate(302,657)"/>
<path d="M0 0 C-1.12104533 1.31587941 -2.24696965 2.62760353 -3.375 3.9375 C-4.00148438 4.66839844 -4.62796875 5.39929688 -5.2734375 6.15234375 C-7 8 -7 8 -9 9 C-9.66 8.67 -10.32 8.34 -11 8 C-7.57350993 0.61986755 -7.57350993 0.61986755 -3.9375 -0.8125 C-2 -1 -2 -1 0 0 Z " fill="#0E0F2B" transform="translate(879,588)"/>
<path d="M0 0 C0.66 0 1.32 0 2 0 C2 1.32 2 2.64 2 4 C1.01 4 0.02 4 -1 4 C-1.0825 4.70125 -1.165 5.4025 -1.25 6.125 C-2.18009005 9.6903452 -3.76686369 12.09015572 -6 15 C-6.66 15 -7.32 15 -8 15 C-6.5320383 9.66195747 -3.98519676 3.98519676 0 0 Z " fill="#1A1B34" transform="translate(569,570)"/>
<path d="M0 0 C6.27 0 12.54 0 19 0 C18.01 0.495 18.01 0.495 17 1 C17 1.66 17 2.32 17 3 C11.39 3 5.78 3 0 3 C0 2.01 0 1.02 0 0 Z " fill="#DED1FA" transform="translate(236,766)"/>
<path d="M0 0 C2.92521913 3.6102388 5.0625098 7.54689328 7.25 11.625 C7.62640625 12.305625 8.0028125 12.98625 8.390625 13.6875 C9.32475399 15.42525466 10.17004594 17.21014959 11 19 C10.67 19.66 10.34 20.32 10 21 C6.70273748 19.35136874 5.84209148 15.79189039 4.375 12.5625 C4.05015625 11.86833984 3.7253125 11.17417969 3.390625 10.45898438 C1 5.27092634 1 5.27092634 1 3 C0.34 2.67 -0.32 2.34 -1 2 C-0.67 1.34 -0.34 0.68 0 0 Z " fill="#522BE6" transform="translate(247,660)"/>
<path d="M0 0 C0.33 0.66 0.66 1.32 1 2 C0.273668 3.94789035 -0.45777551 5.8942498 -1.23046875 7.82421875 C-2.31053545 10.8780114 -2.6651047 13.78500511 -3 17 C-3.66 17 -4.32 17 -5 17 C-5.48761453 11.61456845 -5.79079255 7.38941118 -2.5 2.875 C-1.2625 1.451875 -1.2625 1.451875 0 0 Z " fill="#4051F5" transform="translate(953,618)"/>
<path d="M0 0 C1 3 1 3 0.28735352 4.90112305 C-0.28607788 5.94586792 -0.28607788 5.94586792 -0.87109375 7.01171875 C-1.28037109 7.76904297 -1.68964844 8.52636719 -2.11132812 9.30664062 C-2.54896484 10.09232422 -2.98660156 10.87800781 -3.4375 11.6875 C-4.0881543 12.88342773 -4.0881543 12.88342773 -4.75195312 14.10351562 C-5.82574763 16.07410554 -6.90864182 18.03909927 -8 20 C-8.82193222 17.65942846 -9.16347293 16.4410801 -8.28735352 14.07714844 C-7.90506592 13.4277832 -7.52277832 12.77841797 -7.12890625 12.109375 C-6.71962891 11.40039062 -6.31035156 10.69140625 -5.88867188 9.9609375 C-5.45103516 9.23132813 -5.01339844 8.50171875 -4.5625 7.75 C-3.9118457 6.63238281 -3.9118457 6.63238281 -3.24804688 5.4921875 C-2.1763557 3.65500263 -1.08960023 1.82662026 0 0 Z " fill="#451FBF" transform="translate(367,626)"/>
<path d="M0 0 C3.98481701 1.48598927 7.61531744 3.33836704 11.3125 5.4375 C12.91544922 6.33275391 12.91544922 6.33275391 14.55078125 7.24609375 C15.76314453 8.11427734 15.76314453 8.11427734 17 9 C17 9.99 17 10.98 17 12 C16.01 11.67 15.02 11.34 14 11 C14 10.34 14 9.68 14 9 C13.34 8.7525 12.68 8.505 12 8.25 C9.55537933 7.23140806 7.14663492 6.18753905 4.75 5.0625 C4.06421875 4.74410156 3.3784375 4.42570312 2.671875 4.09765625 C1 3 1 3 0 0 Z " fill="#6D23F4" transform="translate(364,495)"/>
<path d="M0 0 C4.10410755 -0.05796132 8.20811016 -0.09358313 12.3125 -0.125 C13.47974609 -0.14175781 14.64699219 -0.15851563 15.84960938 -0.17578125 C16.96787109 -0.18222656 18.08613281 -0.18867188 19.23828125 -0.1953125 C20.26993408 -0.20578613 21.30158691 -0.21625977 22.36450195 -0.22705078 C25 0 25 0 28 2 C21.25 3.125 21.25 3.125 19 2 C17.5534758 1.84932786 16.1012066 1.75138964 14.6484375 1.68359375 C13.37226563 1.62075195 13.37226563 1.62075195 12.0703125 1.55664062 C11.18085938 1.51732422 10.29140625 1.47800781 9.375 1.4375 C8.4778125 1.39431641 7.580625 1.35113281 6.65625 1.30664062 C4.43765717 1.20043139 2.2189512 1.09838806 0 1 C0 0.67 0 0.34 0 0 Z " fill="#6818F5" transform="translate(334,493)"/>
<path d="M0 0 C0.33 0.99 0.66 1.98 1 3 C-2.63 6.96 -6.26 10.92 -10 15 C-10.99 14.67 -11.98 14.34 -13 14 C-12.22914063 13.24074219 -11.45828125 12.48148438 -10.6640625 11.69921875 C-9.65090904 10.69544634 -8.63789552 9.69153268 -7.625 8.6875 C-7.11710938 8.18798828 -6.60921875 7.68847656 -6.0859375 7.17382812 C-3.77145867 4.87457613 -1.81652517 2.72478775 0 0 Z " fill="#121439" transform="translate(816,615)"/>
<path d="M0 0 C3.97889446 0.55519458 7.28752595 1.51501038 11 3 C12.9924325 3.37593066 14.9918674 3.71979545 17 4 C14.77524037 5.40077458 13.46466598 6.03982851 10.8125 5.8125 C6.83298884 4.66286344 2.91362216 3.35569918 -1 2 C-0.67 1.34 -0.34 0.68 0 0 Z " fill="#562DD1" transform="translate(288,708)"/>
<path d="M0 0 C0.33 0.99 0.66 1.98 1 3 C-0.25942386 4.19959375 -1.53295286 5.38439443 -2.8125 6.5625 C-3.87404297 7.55443359 -3.87404297 7.55443359 -4.95703125 8.56640625 C-5.63121094 9.03949219 -6.30539062 9.51257813 -7 10 C-7.99 9.67 -8.98 9.34 -10 9 C-6.7 6.03 -3.4 3.06 0 0 Z " fill="#141637" transform="translate(632,578)"/>
<path d="M0 0 C0.74609375 1.671875 0.74609375 1.671875 1 4 C-0.65234375 6.578125 -0.65234375 6.578125 -2.9375 9.25 C-4.06478516 10.58804688 -4.06478516 10.58804688 -5.21484375 11.953125 C-5.80394531 12.62859375 -6.39304687 13.3040625 -7 14 C-7.66 13.34 -8.32 12.68 -9 12 C-7.625 10 -7.625 10 -6 8 C-5.34 8 -4.68 8 -4 8 C-3.67 6.68 -3.34 5.36 -3 4 C-2.34 4 -1.68 4 -1 4 C-0.67 2.68 -0.34 1.36 0 0 Z " fill="#4C1AD2" transform="translate(303,723)"/>
<path d="M0 0 C0.66 0 1.32 0 2 0 C6 5.41176471 6 5.41176471 6 8 C2.65750371 7.40312566 0.53563658 6.26396123 -2 4 C-2 3.34 -2 2.68 -2 2 C-1.34 2 -0.68 2 0 2 C0 1.34 0 0.68 0 0 Z " fill="#15152E" transform="translate(1158,686)"/>
<path d="M0 0 C0.33 0.99 0.66 1.98 1 3 C0.3709375 2.86722656 -0.258125 2.73445312 -0.90625 2.59765625 C-6.26258811 1.49250818 -11.56437906 0.60395788 -17 0 C-17 -0.33 -17 -0.66 -17 -1 C-10.90367577 -2.32528788 -6.02232181 -1.46619907 0 0 Z " fill="#0D0F31" transform="translate(696,568)"/>
<path d="M0 0 C3.3 0.33 6.6 0.66 10 1 C6.99382731 4.00617269 4.17618402 3.59585316 0 4 C0 2.68 0 1.36 0 0 Z " fill="#06071C" transform="translate(980,691)"/>
<path d="M0 0 C0.33 1.32 0.66 2.64 1 4 C-1.64 4 -4.28 4 -7 4 C-7.33 3.01 -7.66 2.02 -8 1 C-5.29120665 -0.35439668 -2.99066732 -0.06501451 0 0 Z " fill="#08081A" transform="translate(524,691)"/>
<path d="M0 0 C0.99 0.33 1.98 0.66 3 1 C3 1.66 3 2.32 3 3 C3.99 3.33 4.98 3.66 6 4 C7.71140469 5.96185416 9.37873325 7.96302383 11 10 C11.66 10.66 12.32 11.32 13 12 C7.95078084 11.25196753 4.95650961 8.08576767 1.6875 4.375 C0 2 0 2 0 0 Z " fill="#4B28DD" transform="translate(196,742)"/>
<path d="M0 0 C0.33 0 0.66 0 1 0 C1.33692785 1.60341555 1.66941093 3.20776555 2 4.8125 C2.185625 5.70582031 2.37125 6.59914063 2.5625 7.51953125 C3 10 3 10 3 13 C1 11.4375 1 11.4375 -1 9 C-1.51470588 3.02941176 -1.51470588 3.02941176 0 0 Z " fill="#080924" transform="translate(765,577)"/>
<path d="M0 0 C3.16020751 0.07483187 6.11068996 0.41829749 9.1875 1.1875 C8.8575 1.8475 8.5275 2.5075 8.1875 3.1875 C3.3541528 3.27083357 -1.04942563 3.14011487 -5.8125 2.1875 C-3.8125 0.1875 -3.8125 0.1875 0 0 Z " fill="#450CD9" transform="translate(238.8125,762.8125)"/>
<path d="M0 0 C0.92133116 2.49596988 1.1970855 3.56674452 0.07421875 6.03515625 C-0.38339844 6.70417969 -0.84101562 7.37320313 -1.3125 8.0625 C-1.76238281 8.73410156 -2.21226562 9.40570312 -2.67578125 10.09765625 C-3.11277344 10.72542969 -3.54976562 11.35320313 -4 12 C-4.66 12.99 -5.32 13.98 -6 15 C-7 12 -7 12 -5.56640625 9.08203125 C-4.90511719 8.00308594 -4.24382813 6.92414062 -3.5625 5.8125 C-2.90378906 4.72582031 -2.24507812 3.63914062 -1.56640625 2.51953125 C-1.04949219 1.68808594 -0.53257812 0.85664062 0 0 Z " fill="#202140" transform="translate(912,592)"/>
<path d="M0 0 C0 3 0 3 -1.42578125 4.60546875 C-2.35970703 5.38857422 -2.35970703 5.38857422 -3.3125 6.1875 C-3.92738281 6.71730469 -4.54226563 7.24710938 -5.17578125 7.79296875 C-7 9 -7 9 -10 9 C-8.7319533 5.19585989 -7.42086788 4.90932161 -4 3 C-2.65368175 2.01755155 -1.31558703 1.02323436 0 0 Z " fill="#3112A2" transform="translate(337,678)"/>
<path d="M0 0 C1.0169313 2.65498232 1.13022151 3.69155375 0.00390625 6.359375 C-0.47175781 7.14828125 -0.94742188 7.9371875 -1.4375 8.75 C-1.91058594 9.54921875 -2.38367188 10.3484375 -2.87109375 11.171875 C-3.24363281 11.77515625 -3.61617187 12.3784375 -4 13 C-4.66 13 -5.32 13 -6 13 C-4.58707905 8.1725201 -2.57025846 4.2837641 0 0 Z " fill="#2C2D47" transform="translate(538,628)"/>
<path d="M0 0 C0.99 0.33 1.98 0.66 3 1 C2.01 1.33 1.02 1.66 0 2 C0 1.34 0 0.68 0 0 Z M-5 3 C-3.02 3.495 -3.02 3.495 -1 4 C-1.7115625 5.051875 -1.7115625 5.051875 -2.4375 6.125 C-4.08739857 9.16081337 -4.60368464 11.59168786 -5 15 C-5.33 15 -5.66 15 -6 15 C-6.02712066 13.56260487 -6.04645067 12.12506137 -6.0625 10.6875 C-6.07410156 9.88699219 -6.08570313 9.08648438 -6.09765625 8.26171875 C-6 6 -6 6 -5 3 Z " fill="#1F213E" transform="translate(769,570)"/>
<path d="M0 0 C0.99 0.33 1.98 0.66 3 1 C0.525 4.465 0.525 4.465 -2 8 C-2.99 7.01 -3.98 6.02 -5 5 C-3.625 3.5 -3.625 3.5 -2 2 C-1.34 2 -0.68 2 0 2 C0 1.34 0 0.68 0 0 Z " fill="#0F0F26" transform="translate(728,665)"/>
<path d="M0 0 C0.99 0 1.98 0 3 0 C2.125 7.75 2.125 7.75 1 10 C0.01 10 -0.98 10 -2 10 C-1.34 6.7 -0.68 3.4 0 0 Z " fill="#202046" transform="translate(1006,636)"/>
<path d="M0 0 C0.99 0 1.98 0 3 0 C3 0.66 3 1.32 3 2 C3.680625 1.95875 4.36125 1.9175 5.0625 1.875 C8.59924168 2.02549965 11.63323033 2.94375853 15 4 C15 4.33 15 4.66 15 5 C9.88081854 5.1765235 5.75016635 5.2012966 1 3 C0.67 2.01 0.34 1.02 0 0 Z " fill="#393954" transform="translate(653,692)"/>
<path d="M0 0 C0.99 0 1.98 0 3 0 C4.4606285 2.64738916 5 3.89448334 5 7 C5.99 7.33 6.98 7.66 8 8 C7.67 8.99 7.34 9.98 7 11 C4.04250209 7.53258866 1.92151848 4.13126473 0 0 Z " fill="#0F1031" transform="translate(612,660)"/>
<path d="M0 0 C0.66 0.99 1.32 1.98 2 3 C1.01 3.33 0.02 3.66 -1 4 C-1.80563638 6.10584438 -1.80563638 6.10584438 -2.1875 8.5625 C-2.34605469 9.38878906 -2.50460937 10.21507812 -2.66796875 11.06640625 C-2.77753906 11.70449219 -2.88710938 12.34257813 -3 13 C-5 10 -5 10 -4.875 7.625 C-3.82167152 4.46501455 -2.19439845 2.47754664 0 0 Z " fill="#421ABF" transform="translate(337,627)"/>
<path d="M0 0 C0.66 0 1.32 0 2 0 C0.43358249 4.30764815 -1.68336156 8.06171464 -4 12 C-5 9 -5 9 -4.00390625 6.73828125 C-3.52824219 5.93777344 -3.05257813 5.13726563 -2.5625 4.3125 C-2.08941406 3.50425781 -1.61632812 2.69601562 -1.12890625 1.86328125 C-0.75636719 1.24839844 -0.38382812 0.63351562 0 0 Z " fill="#4D20C9" transform="translate(374,613)"/>
<path d="M0 0 C0.99 0.66 1.98 1.32 3 2 C1.90716423 3.03295436 0.80029421 4.05107835 -0.3125 5.0625 C-0.92738281 5.63097656 -1.54226563 6.19945312 -2.17578125 6.78515625 C-2.77777344 7.18605469 -3.37976563 7.58695313 -4 8 C-4.99 7.67 -5.98 7.34 -7 7 C-4.69 4.69 -2.38 2.38 0 0 Z " fill="#1D2042" transform="translate(922,581)"/>
<path d="M0 0 C2.0625 0.4375 2.0625 0.4375 4 1 C2.02 3.97 2.02 3.97 0 7 C-0.66 6.67 -1.32 6.34 -2 6 C-1.125 1.125 -1.125 1.125 0 0 Z " fill="#0C0C29" transform="translate(536,683)"/>
<path d="M0 0 C0.66 0.99 1.32 1.98 2 3 C-1.625 9.875 -1.625 9.875 -5 11 C-3.55049545 7.2089881 -1.84827434 3.6125362 0 0 Z " fill="#DADAE4" transform="translate(552,659)"/>
<path d="M0 0 C3.0916909 2.52956528 3.90931332 5.22454612 5 9 C3.125 8.875 3.125 8.875 1 8 C-0.3125 5.0625 -0.3125 5.0625 -1 2 C-0.67 1.34 -0.34 0.68 0 0 Z " fill="#27284C" transform="translate(1171,593)"/>
<path d="M0 0 C3.78383679 0.92493788 5.56693694 1.39371171 7.875 4.625 C8.431875 5.800625 8.431875 5.800625 9 7 C6 7 6 7 4.39453125 5.46875 C3.87246094 4.8190625 3.35039062 4.169375 2.8125 3.5 C2.28269531 2.8503125 1.75289063 2.200625 1.20703125 1.53125 C0.80871094 1.0259375 0.41039062 0.520625 0 0 Z " fill="#7A2BEE" transform="translate(298,515)"/>
<path d="M0 0 C0.66 0.33 1.32 0.66 2 1 C0.7391988 2.03319813 -0.53403258 3.05124379 -1.8125 4.0625 C-2.87404297 4.91521484 -2.87404297 4.91521484 -3.95703125 5.78515625 C-4.63121094 6.18605469 -5.30539062 6.58695313 -6 7 C-6.99 6.67 -7.98 6.34 -9 6 C-7.625 4.5 -7.625 4.5 -6 3 C-5.34 3 -4.68 3 -4 3 C-3.67 2.34 -3.34 1.68 -3 1 C-2.01 0.67 -1.02 0.34 0 0 Z " fill="#541ADE" transform="translate(280,752)"/>
<path d="M0 0 C1.17539996 0.92652701 2.34010577 1.86663387 3.5 2.8125 C4.1496875 3.33457031 4.799375 3.85664062 5.46875 4.39453125 C7 6 7 6 7 9 C5.82460004 8.07347299 4.65989423 7.13336613 3.5 6.1875 C2.52546875 5.40439453 2.52546875 5.40439453 1.53125 4.60546875 C0 3 0 3 0 0 Z " fill="#0A0B30" transform="translate(1159,579)"/>
<path d="M0 0 C3.3503698 0.57764997 4.68233772 1.58576846 7 4 C9.09989652 5.17574711 9.09989652 5.17574711 11 6 C10.01 6.33 9.02 6.66 8 7 C4.42869967 4.95925695 2.2949791 3.44246864 0 0 Z " fill="#3E3BF1" transform="translate(952,642)"/>
<path d="M0 0 C0.598125 0.20625 1.19625 0.4125 1.8125 0.625 C1.8125 1.285 1.8125 1.945 1.8125 2.625 C-0.5625 3.6875 -0.5625 3.6875 -3.1875 4.625 C-3.8475 4.295 -4.5075 3.965 -5.1875 3.625 C-5.1875 2.965 -5.1875 2.305 -5.1875 1.625 C-2.1875 -0.375 -2.1875 -0.375 0 0 Z " fill="#0D0E29" transform="translate(928.1875,578.375)"/>
<path d="M0 0 C0.86625 0.391875 1.7325 0.78375 2.625 1.1875 C4.6174325 1.56343066 6.6168674 1.90729545 8.625 2.1875 C8.625 2.5175 8.625 2.8475 8.625 3.1875 C3.09822267 3.38142201 -1.13114911 2.9354503 -6.375 1.1875 C-3.84801849 -0.49715434 -2.94734027 -1.00830062 0 0 Z " fill="#6D41E1" transform="translate(230.375,762.8125)"/>
<path d="M0 0 C0.66 0 1.32 0 2 0 C2.33 0.99 2.66 1.98 3 3 C1.35 4.32 -0.3 5.64 -2 7 C-2.66 6.34 -3.32 5.68 -4 5 C-3.34 5 -2.68 5 -2 5 C-1.34 3.35 -0.68 1.7 0 0 Z " fill="#0E1030" transform="translate(876,686)"/>
<path d="M0 0 C1.17781058 3.68065805 1 7.1644081 1 11 C1.33 11.99 1.66 12.98 2 14 C1.01 14 0.02 14 -1 14 C-1.02705729 12.22925083 -1.04642195 10.45838289 -1.0625 8.6875 C-1.07410156 7.70136719 -1.08570313 6.71523438 -1.09765625 5.69921875 C-1 3 -1 3 0 0 Z " fill="#210798" transform="translate(293,665)"/>
<path d="M0 0 C0.33 0.66 0.66 1.32 1 2 C-0.98 4.31 -2.96 6.62 -5 9 C-5.66 8.67 -6.32 8.34 -7 8 C-4.69 5.36 -2.38 2.72 0 0 Z " fill="#191B39" transform="translate(778,656)"/>
<path d="M0 0 C0.66 0 1.32 0 2 0 C0.55746343 3.36591866 -1.33264727 5.51047079 -4 8 C-4.66 7.67 -5.32 7.34 -6 7 C-5.04882866 5.8274869 -4.08882991 4.66212985 -3.125 3.5 C-2.59132813 2.8503125 -2.05765625 2.200625 -1.5078125 1.53125 C-0.76144531 0.77328125 -0.76144531 0.77328125 0 0 Z " fill="#181A38" transform="translate(793,640)"/>
<path d="M0 0 C0 0.66 0 1.32 0 2 C-0.66 2 -1.32 2 -2 2 C-2.33 2.99 -2.66 3.98 -3 5 C-4.98 5 -6.96 5 -9 5 C-2.87096774 0 -2.87096774 0 0 0 Z " fill="#20223C" transform="translate(939,571)"/>
<path d="M0 0 C4 1 4 1 5.08203125 2.7421875 C5.32308594 3.44601562 5.56414062 4.14984375 5.8125 4.875 C6.06644531 5.57367187 6.32039063 6.27234375 6.58203125 6.9921875 C7 9 7 9 6 12 C4.02 8.04 2.04 4.08 0 0 Z " fill="#6E19EC" transform="translate(310,528)"/>
<path d="M0 0 C0.99 0.33 1.98 0.66 3 1 C3 1.66 3 2.32 3 3 C4.32 3.66 5.64 4.32 7 5 C5.1875 5.625 5.1875 5.625 3 6 C2.01 5.34 1.02 4.68 0 4 C0 2.68 0 1.36 0 0 Z " fill="#161736" transform="translate(764,688)"/>
<path d="M0 0 C1.27875 0.28875 2.5575 0.5775 3.875 0.875 C4.95394531 1.11863281 4.95394531 1.11863281 6.0546875 1.3671875 C8 2 8 2 10 4 C8.375 4.75 8.375 4.75 6 5 C2.75 3.125 2.75 3.125 0 1 C0 0.67 0 0.34 0 0 Z " fill="#181833" transform="translate(930,686)"/>
<path d="M0 0 C0.99 0 1.98 0 3 0 C1.92598892 2.91517292 1.22189824 4.77810176 -1 7 C-1.625 4.625 -1.625 4.625 -2 2 C-1.34 1.34 -0.68 0.68 0 0 Z " fill="#161738" transform="translate(556,646)"/>
<path d="M0 0 C0 1.98 0 3.96 0 6 C-0.99 6 -1.98 6 -3 6 C-3.66 4.68 -4.32 3.36 -5 2 C-2 0 -2 0 0 0 Z " fill="#5C2CD1" transform="translate(337,619)"/>
<path d="M0 0 C0.66 0.33 1.32 0.66 2 1 C1.625 3.9375 1.625 3.9375 1 7 C0.01 7.495 0.01 7.495 -1 8 C-1.625 5.6875 -1.625 5.6875 -2 3 C-1.34 2.01 -0.68 1.02 0 0 Z " fill="#06061D" transform="translate(929,608)"/>
<path d="M0 0 C0.33 0.99 0.66 1.98 1 3 C-0.4375 5.6875 -0.4375 5.6875 -2 8 C-2.99 7.67 -3.98 7.34 -5 7 C-3.70700306 4.11562221 -2.34058637 2.12780579 0 0 Z " fill="#772DEF" transform="translate(300,507)"/>
<path d="M0 0 C0.99 0.33 1.98 0.66 3 1 C-0.625 5.875 -0.625 5.875 -4 7 C-2.92598892 4.08482708 -2.22189824 2.22189824 0 0 Z " fill="#DDDCE5" transform="translate(935,606)"/>
<path d="M0 0 C0.33 0 0.66 0 1 0 C1.3636198 4.24223102 0.5393228 6.58168085 -2 10 C-2.66 10 -3.32 10 -4 10 C-2.8905928 6.51329166 -1.73662334 3.22515763 0 0 Z " fill="#272847" transform="translate(565,575)"/>
<path d="M0 0 C0.9075 0.226875 1.815 0.45375 2.75 0.6875 C0.75 2.6875 0.75 2.6875 -1.1953125 2.8828125 C-3.21354167 2.81770833 -5.23177083 2.75260417 -7.25 2.6875 C-4.61280971 0.1517401 -3.74095095 -0.35970682 0 0 Z " fill="#212242" transform="translate(653.25,568.3125)"/>
<path d="M0 0 C3 1 3 1 4.75 3.375 C6 6 6 6 5 9 C2.38952199 7.694761 2.31933577 6.64173426 1.375 3.9375 C1.11460938 3.20402344 0.85421875 2.47054687 0.5859375 1.71484375 C0.39257812 1.14894531 0.19921875 0.58304688 0 0 Z " fill="#2477FC" transform="translate(91,542)"/>
<path d="M0 0 C3.72433382 1.2125738 7.37802806 2.50859979 11 4 C7.19362399 5.46399077 4.65257704 4.62336757 1 3 C0.67 2.01 0.34 1.02 0 0 Z " fill="#317BFB" transform="translate(146,493)"/>
<path d="M0 0 C0 0.66 0 1.32 0 2 C-3.50776784 3.60355101 -6.14354879 4.22036864 -10 4 C-4 0 -4 0 0 0 Z " fill="#4B11D9" transform="translate(270,759)"/>
<path d="M0 0 C2 4 2 4 1.25 6.6875 C0 9 0 9 -2 10 C-1.34 6.7 -0.68 3.4 0 0 Z " fill="#E1E1E8" transform="translate(738,648)"/>
<path d="M0 0 C1.95418308 2.93127462 2.64700993 4.55834679 3 8 C2.34 8.66 1.68 9.32 1 10 C-0.83691257 6.21812119 -1.15837626 4.05431692 0 0 Z " fill="#E7E7ED" transform="translate(738,605)"/>
<path d="M0 0 C0 0.33 0 0.66 0 1 C-1.2065625 1.185625 -1.2065625 1.185625 -2.4375 1.375 C-3.283125 1.58125 -4.12875 1.7875 -5 2 C-5.33 2.66 -5.66 3.32 -6 4 C-7.32 3.67 -8.64 3.34 -10 3 C-7.29536552 -0.8183075 -4.37912428 -0.24787496 0 0 Z " fill="#47475B" transform="translate(471,567)"/>
<path d="M0 0 C-0.33 0.66 -0.66 1.32 -1 2 C-3.97 1.67 -6.94 1.34 -10 1 C-10 0.67 -10 0.34 -10 0 C-6.30458414 -0.95024979 -3.69541586 -0.95024979 0 0 Z " fill="#1F2146" transform="translate(663,567)"/>
<path d="M0 0 C0.66 0 1.32 0 2 0 C0.52307692 4.67692308 0.52307692 4.67692308 -2.125 6.3125 C-3.053125 6.6528125 -3.053125 6.6528125 -4 7 C-2.92598892 4.08482708 -2.22189824 2.22189824 0 0 Z " fill="#1C1E39" transform="translate(765,670)"/>
<path d="M0 0 C0.66 0.33 1.32 0.66 2 1 C1.01 2.98 0.02 4.96 -1 7 C-1.66 7 -2.32 7 -3 7 C-3 6.34 -3 5.68 -3 5 C-3.66 4.67 -4.32 4.34 -5 4 C-3.35 2.68 -1.7 1.36 0 0 Z " fill="#1A1C37" transform="translate(700,660)"/>
<path d="M0 0 C2 4 2 4 1.75 6.125 C1 8 1 8 -1 10 C-0.67 6.7 -0.34 3.4 0 0 Z " fill="#05051D" transform="translate(1008,629)"/>
<path d="M0 0 C1.64826111 2.96687001 2.44271087 5.65626525 3 9 C2.01 9 1.02 9 0 9 C-1.125 3.375 -1.125 3.375 0 0 Z " fill="#2E2F46" transform="translate(736,606)"/>
<path d="M0 0 C0.66 0.66 1.32 1.32 2 2 C1.625 5.625 1.625 5.625 1 9 C-1 6 -1 6 -0.625 2.8125 C-0.41875 1.884375 -0.2125 0.95625 0 0 Z " fill="#1F2144" transform="translate(609,608)"/>
<path d="M0 0 C0.33 0 0.66 0 1 0 C1 1.98 1 3.96 1 6 C-0.32 6.33 -1.64 6.66 -3 7 C-1.125 2.25 -1.125 2.25 0 0 Z " fill="#20213F" transform="translate(552,601)"/>
<path d="M0 0 C-0.33 0.99 -0.66 1.98 -1 3 C-3.31 2.67 -5.62 2.34 -8 2 C-4.91190305 0.23537317 -3.76687864 0 0 0 Z " fill="#0D0E2A" transform="translate(669,565)"/>
</svg>
